<svg aria-hidden="true" style="position:absolute;width:0;height:0" xmlns="http://www.w3.org/2000/svg" overflow="hidden">
    <defs>
        <symbol id="icon-close" viewBox="0 0 32 32">
            <path stroke="var(--color4, #000000)" stroke-width="2.133" d="M8.533 8.533l14.933 14.933M8.533 23.467L23.466 8.534"/>
        </symbol>
        <symbol id="icon-heart" viewBox="0 0 34 32">
            <path fill="var(--color1, #ff6b08)" d="M17.231 31.705l-2.412-2.412C5.859 21.367.001 16.025.001 9.478.001 4.136 4.136.001 9.478.001c2.929 0 5.858 1.378 7.754 3.618 1.895-2.24 4.825-3.618 7.754-3.618 5.342 0 9.477 4.135 9.477 9.477 0 6.548-5.858 11.889-14.818 19.815l-2.412 2.412z"/>
        </symbol>
        <symbol id="icon-logo" viewBox="0 0 32 32">
            <path fill="none" stroke="var(--color2, #818181)" stroke-linejoin="round" stroke-linecap="round" stroke-width="2.667" d="M26.427 2.667H5.574a2.907 2.907 0 00-2.907 2.907v20.853a2.907 2.907 0 002.907 2.907h20.853a2.907 2.907 0 002.907-2.907V5.574a2.907 2.907 0 00-2.907-2.907zM9.333 2.667v26.667M22.667 2.667v26.667M2.667 16h26.667M2.667 9.333h6.667M2.667 22.667h6.667M22.667 22.667h6.667M22.667 9.333h6.667"/>
        </symbol>
        <symbol id="icon-search" viewBox="0 0 32 32">
            <path d="M14.667 25.333c5.891 0 10.667-4.776 10.667-10.667S20.558 3.999 14.667 3.999 4 8.775 4 14.666s4.776 10.667 10.667 10.667zM28 28.001l-5.8-5.8"/>
        </symbol>
        <symbol id="top-arrow" viewBox="0 0 32 32">
            <path d="M16 0C7.179 0 .001 7.178.001 16S7.178 32 16 32c8.822 0 15.999-7.178 15.999-16S24.822 0 16 0zm9.765 21.296a1.17 1.17 0 01-1.655 0L16 13.186l-8.109 8.11a1.171 1.171 0 01-1.656-1.655l8.938-8.937a1.17 1.17 0 011.654 0l8.938 8.937a1.17 1.17 0 01.001 1.655z"/>
        </symbol>
        <symbol id="icon-movie" viewBox="0 0 32 32">
            <path d="M31.063 1.938a.938.938 0 00-.938.938v.938h-3.813v-.938a.938.938 0 00-1.876 0v1.875a.94.94 0 01-.938.938H8.435a.94.94 0 01-.938-.938V2.876a.938.938 0 00-1.876 0v.938h-3.75v-.938a.938.938 0 00-1.876 0v26.25a.938.938 0 001.876 0v-.938h3.75v.938a.938.938 0 001.876 0v-1.875a.94.94 0 01.938-.938h15.063a.94.94 0 01.938.938v1.875a.938.938 0 001.876 0v-.938h3.813v.938a.938.938 0 001.876 0V2.876a.938.938 0 00-.938-.938zm-4.75 9.375h3.813v3.75h-3.813v-3.75zm0 5.625h3.813v3.75h-3.813v-3.75zm3.812-7.5h-3.813v-3.75h3.813v3.75zm-24.5 5.625h-3.75v-3.75h3.75v3.75zm-3.75 1.875h3.75v3.75h-3.75v-3.75zm3.75-11.25v3.75h-3.75v-3.75h3.75zm-3.75 16.875h3.75v3.75h-3.75v-3.75zM23.5 24.438H8.437c-.329 0-.644.057-.938.161V7.401a2.8 2.8 0 00.938.161H23.5c.329 0 .644-.057.938-.161v17.198a2.8 2.8 0 00-.938-.161zm2.813 1.875v-3.75h3.813v3.75h-3.813z"/>
            <path d="M15.073 10.611l-4.328 9.093c-.221.465-.242 1.063-.054 1.556s.554.801.953.801l8.649.003c.399 0 .765-.307.953-.8a2.05 2.05 0 00-.053-1.556l-4.321-9.096c-.2-.422-.538-.675-.899-.675s-.699.253-.9.675zm3.201 8.42l-4.609-.002 2.306-4.845 2.303 4.847z"/>
        </symbol>
    </defs>
</svg>